Coordinates
version=1
nRows=24
nColumns=24
inDegrees=yes

Units are S.I. units (second, meters, Newtons, ...)
Angles are in degrees.

endheader
time	pelvis_tilt	pelvis_list	pelvis_rotation	pelvis_tx	pelvis_ty	pelvis_tz	hip_flexion_r	hip_adduction_r	hip_rotation_r	knee_angle_r	ankle_angle_r	subtalar_angle_r	mtp_angle_r	hip_flexion_l	hip_adduction_l	hip_rotation_l	knee_angle_l	ankle_angle_l	subtalar_angle_l	mtp_angle_l	lumbar_extension	lumbar_bending	lumbar_rotation
      5.28000000	     33.63830764	     -1.44472554	      1.84970302	      0.55118144	      0.66087417	     -0.23541450	    -53.97424301	      3.89540794	     -5.25290607	     -9.81531797	     13.03001022	     10.99290702	      0.00000000	    -13.09481370	     -3.18693826	     -6.98107006	      1.57973899	      7.39280150	     16.36994896	      0.00000000	    -62.13684361	      1.28297803	      1.25198943
      5.28500000	     33.83774956	     -1.46737956	      1.50727101	      0.55728674	      0.65990767	     -0.23560771	    -54.45015621	      3.52291270	     -5.00116963	    -10.40295814	     12.84492137	     11.20758465	      0.00000000	    -13.19097719	     -3.10883700	     -7.28731296	      1.31496088	      7.37426803	     16.10517594	      0.00000000	    -62.31773246	      0.94319890	      1.39670212
      5.29000000	     34.03136612	     -1.45961907	      1.21013796	      0.56346736	      0.65897580	     -0.23581364	    -54.86795909	      3.16882609	     -4.79092590	    -11.08730472	     12.53867061	     11.30936049	      0.00000000	    -13.23754626	     -3.01531924	     -7.62955363	      0.80367950	      7.40438375	     15.92424450	      0.00000000	    -62.47948137	      0.63184022	      1.41018720
      5.29500000	     34.21079164	     -1.43696905	      0.90695956	      0.56972509	      0.65810778	     -0.23603154	    -55.20446672	      2.79151691	     -4.62972634	    -11.88671949	     12.14678420	     11.40588490	      0.00000000	    -13.23656626	     -2.90861001	     -7.91765457	      0.06025720	      7.40648216	     15.66286467	      0.00000000	    -62.61545421	      0.31379032	      1.41743464
      5.30000000	     34.35455368	     -1.38257659	      0.67173246	      0.57605118	      0.65726262	     -0.23626127	    -55.43832536	      2.45132189	     -4.55914092	    -12.80047502	     11.64671168	     11.48487312	      0.00000000	    -13.14267638	     -2.79647676	     -8.13838252	     -0.91747892	      7.42672979	     15.45354342	      0.00000000	    -62.70514054	      0.02798631	      1.27721230
      5.30500000	     34.57978831	     -1.33529029	      0.31179870	      0.58241919	      0.65656837	     -0.23638599	    -55.67273442	      2.01180163	     -4.39366153	    -13.84900506	     11.07294758	     11.48055236	      0.00000000	    -13.15806253	     -2.65994267	     -8.31224506	     -2.02822069	      7.29585095	     14.95165935	      0.00000000	    -62.86818228	     -0.38626872	      1.32771155
      5.31000000	     34.80964949	     -1.26518308	     -0.02037738	      0.58885290	      0.65593172	     -0.23653877	    -55.82795849	      1.57492000	     -4.31752606	    -15.04009139	     10.35187708	     11.44600815	      0.00000000	    -13.16211140	     -2.50414288	     -8.44545799	     -3.28002944	      7.16375002	     14.49310990	      0.00000000	    -63.02231784	     -0.78568624	      1.31479750
      5.31500000	     35.03852407	     -1.17998537	     -0.34596206	      0.59534862	      0.65536466	     -0.23669050	    -55.89944510	      1.13050918	     -4.29677005	    -16.35823603	      9.48345388	     11.37306261	      0.00000000	    -13.15084923	     -2.32959086	     -8.48839170	     -4.66047615	      6.98098366	     13.94728335	      0.00000000	    -63.16348627	     -1.18996906	      1.26158428
      5.32000000	     35.28037428	     -1.08116453	     -0.66926846	      0.60187599	      0.65486539	     -0.23687624	    -55.88591318	      0.67138800	     -4.33699766	    -17.82801560	      8.48295297	     11.21093965	      0.00000000	    -13.14490018	     -2.12616320	     -8.36576099	     -6.13748145	      6.77050643	     13.25227289	      0.00000000	    -63.30655230	     -1.60316760	      1.25069182
      5.32500000	     35.51667791	     -0.96218058	     -0.96141694	      0.60843575	      0.65441963	     -0.23709402	    -55.77278667	      0.21849086	     -4.44988435	    -19.43426848	      7.31421852	     10.98931689	      0.00000000	    -13.11844764	     -1.89244850	     -8.10990417	     -7.70163993	      6.54568306	     12.45159746	      0.00000000	    -63.43716287	     -2.00170216	      1.20755240
      5.33000000	     35.74396955	     -0.82358457	     -1.22889159	      0.61503415	      0.65403588	     -0.23736299	    -55.56402861	     -0.23847414	     -4.64292226	    -21.15118542	      5.95593505	     10.69538767	      0.00000000	    -13.07642495	     -1.62140132	     -7.72307069	     -9.32632445	      6.30771437	     11.56253857	      0.00000000	    -63.54968352	     -2.39037080	      1.13430746
      5.33500000	     35.96059616	     -0.66273189	     -1.45383037	      0.62164684	      0.65369450	     -0.23772096	    -55.24497030	     -0.69302458	     -4.93770902	    -23.00230288	      4.42825107	     10.30863345	      0.00000000	    -13.02419674	     -1.30588778	     -7.18409004	    -10.97721975	      6.10996072	     10.58691311	      0.00000000	    -63.64376414	     -2.74265694	      1.03726300
      5.34000000	     36.15103546	     -0.47122584	     -1.61695148	      0.62827028	      0.65338696	     -0.23817577	    -54.81210585	     -1.13505434	     -5.33024583	    -24.95387957	      2.70840704	      9.83133852	      0.00000000	    -12.93724277	     -0.94175406	     -6.51154262	    -12.66158276	      5.97127497	      9.54169706	      0.00000000	    -63.71295381	     -3.05305815	      0.89157145
      5.34500000	     36.33561285	     -0.25588095	     -1.78201662	      0.63494484	      0.65314811	     -0.23868229	    -54.29222572	     -1.62422494	     -5.81174213	    -26.99268693	      0.79649727	      9.25984415	      0.00000000	    -12.89044333	     -0.52125740	     -5.80123479	    -14.28993142	      5.88897842	      8.52505672	      0.00000000	    -63.76139517	     -3.36539919	      0.73095572
      5.35000000	     36.38184640	     -0.02690088	     -1.68998777	      0.64155158	      0.65280239	     -0.23948104	    -53.55611746	     -1.94117055	     -6.47482650	    -29.10172312	     -1.25833274	      8.65561475	      0.00000000	    -12.60116086	     -0.11269263	     -4.71579677	    -16.06413939	      6.05156894	      7.41159249	      0.00000000	    -63.69197326	     -3.44760536	      0.33323493
      5.35500000	     36.58447497	      0.27043173	     -1.91039454	      0.64829964	      0.65271760	     -0.23998921	    -52.91926340	     -2.58109158	     -7.05359272	    -31.25651560	     -3.43193355	      7.80348744	      0.00000000	    -12.70162914	      0.45386861	     -4.12110636	    -17.50733997	      6.06848327	      6.47851684	      0.00000000	    -63.73586364	     -3.84989620	      0.22271660
      5.36000000	     36.68413788	      0.53175644	     -1.86777770	      0.65491631	      0.65253506	     -0.24083552	    -52.11157257	     -3.01405473	     -7.72701249	    -33.44845313	     -5.71024343	      6.89247933	      0.00000000	    -12.61636835	      0.96171660	     -3.11912999	    -19.06295589	      6.41320504	      5.44739299	      0.00000000	    -63.70766787	     -3.96491930	     -0.12154303
      5.36500000	     36.86757403	      0.87199299	     -2.08481782	      0.66165068	      0.65256191	     -0.24145610	    -51.34137205	     -3.74510446	     -8.36175979	    -35.65402181	     -7.99649131	      5.85705989	      0.00000000	    -12.80992718	      1.60946169	     -2.57510771	    -20.31816301	      6.64437469	      4.59047063	      0.00000000	    -63.72980840	     -4.35079966	     -0.28144641
      5.37000000	     37.04353216	      1.18941892	     -2.22609084	      0.66829834	      0.65261866	     -0.24219163	    -50.51645036	     -4.41616471	     -8.97201132	    -37.85679868	    -10.25986435	      4.73108003	      0.00000000	    -13.03330249	      2.23198279	     -1.94784688	    -21.49752426	      7.06433335	      3.74837209	      0.00000000	    -63.75780862	     -4.63552732	     -0.50795152
      5.37500000	     37.08215100	      1.49667019	     -2.10955362	      0.67481778	      0.65258796	     -0.24312491	    -49.52374763	     -4.87309552	     -9.64740203	    -40.03949481	    -12.41295089	      3.52817920	      0.00000000	    -13.07041220	      2.77619809	     -1.10743095	    -22.72151141	      7.73168168	      3.00916921	      0.00000000	    -63.67951457	     -4.68535119	     -0.88632661
      5.38000000	     37.23891764	      1.88944351	     -2.30423336	      0.68146073	      0.65279628	     -0.24376389	    -48.62862516	     -5.65157112	    -10.16755832	    -42.19140158	    -14.31975780	      2.42152921	      0.00000000	    -13.44991083	      3.46541514	     -0.70280356	    -23.57786795	      8.24359753	      2.40511691	      0.00000000	    -63.67935890	     -5.05870496	     -1.13422346
      5.38500000	     37.38707081	      2.23295289	     -2.42322261	      0.68799790	      0.65306550	     -0.24447114	    -47.70391795	     -6.32255951	    -10.61224017	    -44.28670619	    -16.01310955	      1.27602985	      0.00000000	    -13.87223058	      4.07209366	     -0.30560073	    -24.32963428	      8.90344000	      1.89045820	      0.00000000	    -63.68820220	     -5.31115233	     -1.40068256
      5.39000000	     37.51267742	      2.54783943	     -2.49500988	      0.69439864	      0.65340871	     -0.24512520	    -46.73127544	     -6.91495090	    -10.99923679	    -46.33505128	    -17.36800292	      0.19402612	      0.00000000	    -14.31837138	      4.60307004	      0.04820658	    -24.97408490	      9.60395084	      1.53426575	      0.00000000	    -63.69610204	     -5.52435374	     -1.68015964
      5.39500000	     37.52336742	      2.78551289	     -2.46218396	      0.70064997	      0.65378219	     -0.24583317	    -45.59513851	     -7.33037622	    -11.25880929	    -48.35013057	    -18.39606573	     -0.81359358	      0.00000000	    -14.66876636	      4.99093525	      0.37117146	    -25.54792161	     10.41511583	      1.36440905	      0.00000000	    -63.61837658	     -5.58768529	     -1.89907956
